<svg xmlns="http://www.w3.org/2000/svg" xmlns:xlink="http://www.w3.org/1999/xlink" width="512" height="512">
	<path fill="#EAE9E8" transform="scale(0.666667 0.666667)" d="M0 0.1875C1.70241 -0.185587 3.61693 -0.00979729 5.35479 -0.0090068C8.44963 -0.00759905 11.5445 -0.00845752 14.6393 -0.00881649C26.6055 -0.0102045 38.5716 -0.00977825 50.5378 -0.00976663C98.2915 -0.00972023 146.045 -0.00952629 193.799 -0.0102393C385.199 -0.0130972 576.6 -0.00755292 768 0L768 767.812C766.298 768.186 764.383 768.01 762.645 768.009C759.55 768.008 756.456 768.008 753.361 768.009C741.395 768.01 729.428 768.01 717.462 768.01C669.708 768.01 621.955 768.01 574.201 768.01C382.801 768.013 191.4 768.008 -0 768L0 0.1875Z"/>
	<path fill="#3C3B3B" transform="scale(0.666667 0.666667)" d="M293.659 341.062L295.688 340.703C297.127 340.742 298.294 341.723 299.106 342.83C300.202 344.325 300.61 346.628 300.241 348.433C299.852 350.331 298.62 350.958 297.094 351.94C296.073 352.111 295.009 352.13 294 351.858C292.882 351.556 292.088 351.16 291.512 350.126C290.497 348.306 290.134 345.923 290.853 343.931C291.4 342.415 292.229 341.716 293.659 341.062Z"/>
	<path fill="#3C3B3B" transform="scale(0.666667 0.666667)" d="M477.542 495.938C477.923 497.093 477.667 498.465 477.58 499.668C477.361 502.672 477.029 505.658 476.778 508.657C475.755 520.882 474.498 533.112 473.559 545.339C473.129 550.945 473.055 556.609 472.861 562.229C468.063 556.263 467.389 550.336 466.304 542.972C461.993 547.132 458.598 552.848 457.237 558.659L416.719 558.634C412.751 558.667 408.783 558.699 404.815 558.72C403.122 558.728 400.918 558.995 399.287 558.608C398.708 558.471 398.671 558.102 398.382 557.625C399.561 556.223 403.874 555.334 405.744 555.013C417.244 553.038 429.625 554.94 440.576 550.281C459.104 542.399 470.549 513.593 477.542 495.938Z"/>
	<path fill="#3C3B3B" transform="scale(0.666667 0.666667)" d="M262.949 363.417L263.371 363.386C265.245 363.309 265.637 363.47 266.993 364.688C266.956 365.062 267.037 365.469 266.881 365.812C266.663 366.295 265.347 367.324 264.891 367.779C263.182 369.482 261.482 371.105 260.354 373.277C258.431 376.977 258.268 381.632 257.626 385.688C256.227 394.527 252.642 401.527 245.57 407.094C242.944 409.16 240.028 410.806 237.373 412.815C233.508 415.74 232.092 420.58 230.296 424.875C228.523 429.114 225.986 433.854 225.674 438.48C225.501 441.033 226.449 443.704 227.306 446.078C229.303 451.607 232.116 456.814 234.344 462.252C235.623 465.372 236.959 468.721 236.654 472.143C236.401 474.987 235.379 477.836 234.54 480.556C233.283 484.627 231.986 488.686 230.738 492.76C228.236 500.932 226.155 509.368 224.708 517.791C223.534 524.627 222.764 531.541 222.733 538.48C222.707 544.373 223.464 551.219 222.461 556.99C222.2 558.493 221.578 560.557 220.312 561.458L219.418 560.461C207.283 542.583 213.846 518.287 220.081 499.52C221.521 495.187 222.818 490.799 224.355 486.502C226.038 481.797 229.67 474.421 228.897 469.503L228.801 468.938C227.825 462.276 224.715 455.638 222.318 449.362C221.188 446.405 219.812 443.291 219.535 440.109C219.194 436.187 220.555 432.824 221.917 429.234C223.502 425.059 225.244 420.981 227.275 417C228.528 414.544 229.854 411.496 231.856 409.553C233.348 408.104 235.406 407.083 237.189 406.013C241.94 403.159 245.563 400.426 248.496 395.613C252.965 388.282 252.255 380.624 254.901 372.839C256.393 368.448 258.757 365.457 262.949 363.417Z"/>
	<path fill="#3C3B3B" transform="scale(0.666667 0.666667)" d="M484.613 191.812C485.356 191.652 484.956 191.665 485.812 191.847L488.498 202.599C492.154 202.546 494.92 202.143 498.41 200.959C497.042 203.741 496.17 206.705 494.752 209.449C494.031 210.843 492.917 212.062 492.12 213.426C491.389 214.676 490.783 216.018 489.853 217.137L489.377 217.688C489.802 218.518 489.645 218.08 489.845 219C488.452 221.712 485.953 224.019 483.791 226.121C480.182 229.627 476.25 232.023 471.1 232.431C467.663 232.703 463.84 231.906 460.412 231.487C459.134 231.331 457.145 230.842 455.893 231.147C452.421 231.995 448.635 234.944 445.545 236.729C447.745 237.144 450.063 236.91 452.317 237.318C461.683 239.012 471.175 244.409 477.861 251.096C491.895 265.134 496.695 282.698 493.828 302.127C492.997 307.752 490.85 313.537 490.887 319.233C490.944 327.816 497.222 336.138 503.439 341.513C508.956 346.281 514.868 349.854 519.151 355.955C520.811 358.319 522.028 361.036 523.008 363.746C523.736 365.76 524.351 367.828 525.007 369.867C525.086 370.114 525.351 371.263 525.511 371.438C526.437 372.452 533.194 374.897 534.918 375.822C537.611 377.267 540.059 379.079 542.212 381.247C545.958 385.021 553.324 392.488 552.989 398.25C552.831 400.964 550.618 402.755 548.732 404.399C545.434 398.024 542.24 391.799 536.702 387.031C533.781 384.517 530.428 382.653 527.03 380.877C523.918 379.251 520.467 377.695 518.103 375.013C514.557 370.989 513.629 364.896 510.377 360.523C505.05 353.359 497.019 348.896 491.215 342.176C485.684 335.773 483.086 327.285 476.444 321.791C471.921 318.05 465.798 315.688 460.529 313.132C453.466 309.708 447.036 305.591 441.236 300.278C444.131 305.473 444.193 311.194 448.131 315.86C455.521 324.615 467.473 327.618 475.591 335.75C479.066 339.231 481.966 343.243 485.388 346.779C489.825 351.365 495.075 355.348 498.988 360.41C503.833 366.677 506.467 374.88 512.43 380.212C518.313 385.473 526.169 387.552 532.711 391.797C540.828 397.065 545.424 403.426 547.398 412.92C546.18 413.886 544.932 414.672 543.586 415.447C540.439 409.938 536.552 404.717 531.52 400.793C527.655 397.778 523.249 395.562 518.915 393.318C514.662 391.115 510.429 388.855 506.806 385.678C500.126 379.819 497.374 371.816 492.183 364.917C489.499 361.349 485.993 358.166 482.725 355.136C477.923 350.684 473.061 346.226 467.818 342.294C463.495 339.053 458.859 336.279 454.43 333.193C451.337 331.038 448.339 328.735 445.779 325.952C442.91 322.833 440.455 319.004 438.935 315.038C437.719 311.863 437.013 308.509 435.802 305.327C433.019 298.01 428.781 292.521 422.447 287.91C403.771 274.316 380.51 269.504 357.843 273.089C354.217 273.662 347.182 274.66 345.039 277.954C344.559 278.69 344.536 280.098 344.774 280.94C344.818 281.096 345.084 281.804 345.141 281.859C345.7 282.403 350.987 281.474 351.915 281.379C355.598 280.999 359.299 280.845 363 280.914C379.762 281.225 397.379 284.392 411.805 293.412C418.082 297.337 423.323 302.329 426.664 309.006C428.241 312.159 429.282 315.597 430.422 318.924C432.177 324.048 434.237 329.057 437.92 333.122C448.064 344.323 462.899 350.653 474.35 360.478C478.878 364.363 483.016 368.795 486.433 373.688C489.868 378.606 492.749 383.83 496.924 388.208C503.773 395.391 512.578 400.735 520.078 407.254C527.947 414.093 534.174 421.975 540.414 430.258C548.068 440.419 556.401 451.524 559.182 464.216C560.883 471.979 560.178 479.496 555.782 486.217C553.716 489.375 549.619 493.898 545.812 494.696C543.991 491.324 546.967 485.96 547.988 482.662C548.746 480.217 549.274 477.689 549.493 475.138C551.021 457.325 539.157 443.289 528.468 430.445C523.651 424.657 518.931 418.827 513.338 413.75C506.435 407.484 498.52 402.327 492.027 395.611C483.791 387.093 478.733 376.34 469.721 368.407C459.841 359.709 447.751 353.724 437.932 344.924C434.432 341.787 431.476 338.063 428.455 334.474C429.084 338.054 429.549 341.357 431.266 344.625C434.235 350.276 439.289 354.619 443.005 359.777C447.498 366.014 450.655 373.465 456.172 378.891C460.998 383.638 467.275 387.046 472.662 391.162C480.831 397.404 488.522 404.309 495.317 412.034C503.465 421.297 508.849 431.968 515.952 441.892C520.331 448.01 525.826 453.389 529.605 459.927C531.639 463.446 533.311 467.19 533.813 471.256C534.319 475.362 533.803 479.375 532.609 483.312C531.824 485.899 530.813 488.461 530.207 491.096C529.195 495.492 528.973 500.258 528.432 504.75C527.556 512.011 526.638 519.268 525.814 526.535C525 533.719 524.276 541.048 522.607 548.09C521.793 551.527 520.251 555.639 517.929 558.383C517.224 559.217 516.546 559.766 515.438 559.895C514.817 559.402 514.218 558.894 513.733 558.262C513.351 557.764 512.427 556.706 512.248 556.146C511.596 554.104 512.574 549.248 512.802 546.979C513.837 536.671 515.087 526.381 516.28 516.09C517.154 509.197 517.992 502.307 518.65 495.39C519.443 487.043 520.633 478.044 516.89 470.209C514.02 464.202 508.61 459.348 502.312 457.162C495.849 454.917 488.889 455.174 482.384 457.153C478.8 458.244 475.244 460.091 471.885 461.741C464.93 465.158 458.201 469.039 451.517 472.955C440.689 479.298 429.755 485.429 418.99 491.883C409.3 497.693 399.443 504.191 389.257 509.059C390.242 507.464 393.059 505.745 394.53 504.404C398.595 500.697 402.538 496.887 406.923 493.548C417.433 485.547 428.784 478.919 440.09 472.141C450.882 465.671 461.638 458.981 471.922 451.732C463.84 447.971 455.777 440.222 450.57 433.011C448.396 430.001 446.635 426.719 444.691 423.562C440.633 416.975 432.691 409.337 424.852 407.777C415.585 405.934 402.783 416.044 395.349 420.784C401.539 434.01 405.71 450.443 403.361 465.105C402.254 472.016 398.859 478.696 395.703 484.861C388.775 498.392 380.45 511.146 371.842 523.653C364.832 533.837 357.232 544.937 354.614 557.172C353.476 552.505 352.467 547.278 353.775 542.546L353.97 541.875C356.432 533.061 361.856 524.661 366.425 516.784C371.847 507.439 377.389 498.17 382.868 488.858C386.673 482.392 391.019 475.317 393.034 468.076C394.444 463.008 394.66 457.575 394.162 452.364C393.54 445.856 391.873 437.991 386.428 433.765C381.532 429.966 374.27 429.456 368.347 430.362L367.688 430.47L366.375 430.673C361.602 431.545 356.54 434.482 353.839 438.549C352.261 440.926 352.328 443.383 352.857 446.074C354.886 456.399 362.25 461.866 370.496 467.483C364.365 475.525 357.409 482.755 351.158 490.657C344.859 498.619 339.377 507.489 334.635 516.458C330.577 524.134 326.35 532.722 326.242 541.573C326.219 543.456 326.256 545.48 326.901 547.275C328.125 550.68 331.904 552.96 335.25 553.794C336.649 554.142 338.121 554.184 339.435 554.812L339.431 555.186C339.324 555.914 338.569 557.176 337.892 557.513C336.438 558.236 334.301 558.188 332.686 558.251C328.126 558.429 323.433 557.999 318.844 557.991C304.776 557.965 290.711 558.297 276.644 558.065C273.62 558.015 268.091 558.518 265.329 557.438C265.002 556.523 264.747 556.179 264.933 555.188C266.499 554.461 268.266 554.434 269.964 554.248C273.009 553.914 276.124 553.713 279.124 553.082C281.552 552.571 283.792 551.829 285.13 549.577C291.049 539.622 275.169 511.31 271.312 501.532C268.676 494.845 266.807 488.142 265.265 481.13C263.401 481.928 261.355 482.445 259.905 483.938C257.924 485.976 256.915 489.366 256.081 492.022C253.051 501.666 251.415 512.26 251.346 522.358C251.315 526.84 252.246 531.271 252.234 535.688L251.625 536.197L251.062 535.699C244.787 517.816 247.895 497.414 252.939 479.616C254.186 475.214 256.76 469.256 256.471 464.646C256.301 461.951 254.568 459.416 252.586 457.688C250.464 455.838 249.43 455.907 246.753 456.133C243.344 456.42 241.026 455.769 238.075 454.118C241.238 453.129 247.672 449.371 250.92 450.539L251.438 450.744C255.402 452.251 257.615 454.675 260.438 457.656C260.991 457.782 261.24 458.005 261.746 457.661C262.506 457.144 262.784 456.563 262.872 455.653C263.096 453.33 262.447 451.231 260.961 449.438C257.287 445.002 251.397 443.325 245.914 442.824L249.433 439.227L260.235 442.769L261.428 439.312C261.584 438.728 261.894 437.79 261.524 437.269C260.272 435.505 257.119 434.649 255.082 434.128C253.508 433.726 250.02 432.714 248.699 433.5L248.867 434.935C246.177 432.303 244.787 430.228 240.757 430.088C239.527 430.045 238.381 430.119 237.188 429.756L237.188 429.245C238.172 428.536 239.169 428.094 240.375 427.883C242.618 427.491 245.151 427.837 247.416 428.012C251.133 428.299 255.559 428.404 259.076 429.6C261.461 430.411 263.376 431.916 265.358 433.417C264.344 429.546 263.131 425.92 263.179 421.883C263.192 420.723 261.67 420.51 260.64 420.087C258.439 419.182 256.141 418.448 253.809 417.962C251.015 417.381 242.572 417.443 240.875 415.5L241.312 414.99C243.531 414.252 246.093 414.22 248.415 414.113C253.725 413.867 259.106 414.178 264.418 414.333C264.876 406.65 265.552 398.996 266.303 391.336C266.692 387.368 266.768 383.218 267.932 379.38C268.436 377.72 269.371 376.229 270.657 375.063C274.01 372.025 278.333 371.36 282.683 371.57C289.181 371.883 293.81 375.617 297.966 380.229C303.636 377.026 308.312 375.636 314.881 375.738C317.446 370.352 319.554 364.747 322.041 359.321C325.452 351.878 330.396 344.432 331.987 336.352C334.487 323.658 325.511 313.585 320.809 302.76C317.531 295.212 316.272 286.081 317.703 277.955C320.911 259.735 334.994 241.367 349.988 230.912C366.367 219.491 385.232 214.175 405.072 213.712C410.217 213.591 415.084 213.526 420.177 214.439C421.296 208.97 421.763 203.284 423.678 198.026C426.156 200.861 427.447 202.805 430.928 204.586L439.637 199.709C441.039 203.496 441.61 207.697 443.132 211.37C444.224 214.006 446.175 216.175 447.708 218.552C449.992 222.094 450.498 225.328 450.337 229.466C452.463 227.613 454.602 225.771 456.606 223.784C457.006 223.388 458.246 222.405 458.45 221.927C459.396 219.706 459.569 216.014 460.01 213.573C460.62 210.195 461.334 206.958 463.141 203.991C464.483 201.787 466.284 199.918 467.853 197.879C469.415 195.85 470.886 193.639 472.688 191.82L473.246 192.188C475.085 195.691 475.692 199.799 476.352 203.654C477.793 201.374 479.29 199.135 480.761 196.875C481.93 195.077 482.939 193.202 484.613 191.812Z"/>
	<path fill="#EAE9E8" transform="scale(0.666667 0.666667)" d="M471.071 199.688L471.758 199.893L472.905 207.072L472.989 207.409C470.696 210.807 469.084 215.147 465.818 217.688C465.306 218.06 465.031 218.156 464.438 218.331L464.344 217.879C463.527 211.714 467.598 204.445 471.071 199.688Z"/>
	<path fill="#EAE9E8" transform="scale(0.666667 0.666667)" d="M483.44 199.688C483.6 199.736 483.825 199.696 483.921 199.833C483.953 199.88 483.985 201.051 483.995 201.213C484.108 203.109 484.104 204.625 485.376 206.103C487.392 206.87 489.458 206.909 491.584 207.032C489.111 209.812 487.648 211.218 484.121 212.47C480.749 212.778 479.314 212.471 476.349 210.853C476.734 207.453 481.384 202.411 483.44 199.688Z"/>
	<path fill="#EAE9E8" transform="scale(0.666667 0.666667)" d="M474.708 212.812C476.356 212.97 476.547 216.235 478.371 217.025C480.541 217.965 484.549 216.584 486.769 215.947C483.878 220.465 477.962 225.026 473.103 227.033C468.921 227.87 463.984 226.82 459.685 226.89C463.391 224.604 467.591 221.751 470.516 218.491C472.06 216.77 473.284 214.653 474.708 212.812Z"/>
	<path fill="#EAE9E8" transform="scale(0.666667 0.666667)" d="M442.297 215.438C443.037 216.266 443.37 217.829 443.763 218.889C445.278 222.971 445.576 226.932 445.906 231.227C438.443 235.979 429.628 238.653 423.114 244.688L422.312 244.617C422.365 240.527 422.222 236.14 422.766 232.094C423.912 233.288 425.105 234.709 426.73 235.219C428.789 235.864 430.57 235.34 432.37 234.242C439.12 230.127 440.576 222.443 442.297 215.438Z"/>
	<path fill="#EAE9E8" transform="scale(0.666667 0.666667)" d="M436.224 206.062L436.665 206.093L437.105 206.625C437.436 209.993 438.252 214.744 437.409 217.991L437.281 218.438C436.109 222.872 431.765 227.773 428.295 230.723C425.512 229.195 422.969 227.255 421.133 224.625C423.256 222.309 423.699 216.636 424.359 213.468C424.83 211.524 425.034 208.698 426 206.988C428.009 208.891 426.552 212.731 426.829 215.25C427.08 217.535 427.831 219.481 429.643 220.948C430.889 221.957 431.903 222.409 433.5 222.266C434.496 221.482 434.829 221.065 434.947 219.75C435.038 218.743 434.689 217.886 434.062 217.123C432.933 216.591 431.614 216.064 430.823 215.053C429.873 213.84 429.757 212.855 429.938 211.4C431.922 209.389 433.924 207.703 436.224 206.062Z"/>
	<path fill="#EAE9E8" transform="scale(0.666667 0.666667)" d="M441.485 241.923C447.425 241.997 455.063 245.205 460.141 248.12C466.417 251.722 471.618 256.747 476.062 262.417C477.796 264.63 479.766 267.336 480.501 270.082L470.455 261.44C461.166 254.93 451.455 249.681 440.25 247.405C437.857 246.919 435.165 246.278 432.715 246.371C429.995 246.473 428.002 248.881 425.751 248.954C426.827 247.786 428.733 246.928 430.162 246.24C433.827 244.476 437.547 242.945 441.485 241.923Z"/>
	<path fill="#EAE9E8" transform="scale(0.666667 0.666667)" d="M428.344 361.688C428.609 361.647 428.874 361.605 429.141 361.575C431.055 361.352 432.746 361.989 434.042 363.433C436.322 365.974 437.919 369.398 439.545 372.375C444.68 381.774 450.172 392.349 459.436 398.347C463.714 401.118 469.183 401.631 473.723 404.253C479.273 407.459 483.825 412.558 487.63 417.631C493.789 425.844 498.219 433.327 500.845 443.346L500.438 444.035C496.252 442.885 492.439 442.844 488.141 442.912C485.329 442.956 482.203 443.236 479.461 442.512C471.029 440.285 464.558 432.011 462.429 423.87C461.925 421.943 461.589 419.956 461.202 418.002C461.065 417.312 460.994 416.084 460.711 415.507C459.972 413.997 457.247 412.5 455.835 411.568C452.581 409.419 449.22 407.343 446.253 404.803C435.685 395.757 428.622 382.102 427.554 368.216C427.397 366.181 427.031 363.235 428.344 361.688Z"/>
	<path fill="#EAE9E8" transform="scale(0.666667 0.666667)" d="M400.333 240.9C406.558 240.4 412.596 240.851 418.774 241.598L419.256 254.454C419.726 254.696 421.477 253.895 422.062 253.725C426.696 252.38 433.372 253.413 438.003 254.494C452.803 257.946 470.825 268.435 478.797 281.678C483.92 290.188 484.395 301.41 482.094 310.861C479.354 308.406 476.462 305.894 474.229 302.955C470.812 298.457 468.511 293.472 463.856 289.989C466.34 293.319 468.35 296.52 470.231 300.233C470.977 301.705 472.013 303.391 472.4 304.999C472.601 305.832 472.542 305.985 472.125 306.669C469.418 306.833 465.766 304.827 463.341 303.737C458.33 301.181 453.39 298.457 448.773 295.234C440.901 289.741 433.604 283.463 425.617 278.116C408.277 266.51 386.48 261.666 365.812 263.315C360.473 263.741 355.087 264.93 349.836 265.99L354.011 260.438C365.437 246.842 383.363 242.454 400.333 240.9Z"/>
	<path fill="#EAE9E8" transform="scale(0.666667 0.666667)" d="M278.69 376.522C285.665 376.272 289.085 379.576 293.972 383.815C294.439 384.22 296.158 385.715 296.692 385.75C297.128 385.779 299.253 384.554 299.766 384.322C302.001 383.309 304.126 382.481 306.558 382.084C308.605 381.75 312.761 381.122 314.721 381.905C315.665 382.281 316.717 383.177 317.566 383.751C317.728 383.861 318.658 384.588 318.822 384.605C319.809 384.707 324.064 382.137 325.282 381.679C326.597 381.185 328.039 380.944 329.438 380.876C331.559 380.772 334.296 380.99 335.903 382.536C338.012 384.564 338.838 388.168 339.316 390.985C341.206 402.127 340.391 414.325 340.479 425.625C340.57 437.318 341.202 449.106 340.399 460.776C340.121 464.807 339.495 468.905 338.519 472.826C336.548 480.754 333.066 488.049 329.546 495.38C322.389 510.287 317.414 523.867 317.509 540.664C317.643 545.93 319.462 550.073 322.815 554.067L322.648 554.16C318.181 553.158 313.367 553.472 308.812 553.48C302.113 553.492 295.406 553.488 288.712 553.764C294.472 548.485 294.993 543.395 294.28 535.956C293.466 527.464 290.949 518.767 287.767 510.873C284.14 501.874 279.537 493.002 276.93 483.638C274.832 476.105 274.534 468.025 274.23 460.253C273.628 444.912 274.367 429.504 273.703 414.188C273.236 403.432 271.774 391.904 273.019 381.19C274.594 378.752 276.037 377.623 278.69 376.522Z"/>
	<path fill="#B77B41" transform="scale(0.666667 0.666667)" d="M318.503 411.938L322.814 411.86C322.818 419.493 322.821 427.126 322.794 434.758C322.772 440.948 323.349 448.015 321.468 453.938C321.211 454.552 321.045 454.796 320.625 455.284L320.245 454.688C319.279 452.714 317.363 414.142 318.503 411.938Z"/>
	<path fill="#B77B41" transform="scale(0.666667 0.666667)" d="M280.949 411.938L285.485 411.899C285.528 417.464 285.609 423.029 285.695 428.593C285.742 431.586 285.474 434.995 286.231 437.895L287.062 438.235L287.714 437.812C288.796 429.379 287.789 420.373 288.212 411.828L294.454 411.783C294.745 422.108 293.289 481.005 296.726 484.688L297.938 484.716C298.155 484.457 298.478 484.257 298.59 483.938C299.082 482.533 298.571 478.625 298.545 477.049C298.389 467.601 297.916 458.16 297.789 448.714C297.624 436.433 297.574 424.108 297.774 411.828L304.8 411.814C304.688 419.481 304.328 477.721 305.438 480.16C305.55 480.408 305.812 480.555 306 480.753L306.659 480.373C307.849 477.829 307.709 474.572 307.782 471.8C307.899 467.303 307.915 462.802 307.956 458.304C308.095 442.876 307.573 427.289 308.282 411.895L315.253 411.831L316.627 440.717L319.265 460.584C320.741 457.211 322.496 454.077 323.494 450.513C325.122 444.696 325.148 438.084 325.207 432.078C325.273 425.408 325.286 418.737 325.282 412.067L332.435 412.071C332.9 418.863 332.641 425.836 332.662 432.65C332.704 446.275 333.713 460.82 330.272 474.101C327.178 486.045 320.992 496.907 316.761 508.44C312.247 520.746 311.253 533.585 310.063 546.51C307.697 547.382 303.118 546.787 300.484 546.803C300.378 532.745 298.169 519.793 293.106 506.639C291.107 501.446 288.695 496.411 286.786 491.188C284.802 485.76 283.065 480.168 282.265 474.429C280.071 458.7 280.782 442.24 280.644 426.375C280.615 423.015 280.57 419.655 280.555 416.295C280.548 414.842 280.32 413.282 280.949 411.938Z"/>
	<path fill="#EAE9E8" transform="scale(0.666667 0.666667)" d="M399.994 221.786C405.352 221.535 410.83 222.081 416.122 222.876C417.538 226.565 418.713 229.706 419.206 233.643C414.674 232.32 409.931 232.234 405.241 232.29C391.52 232.453 377.923 235.622 365.624 241.737C354.193 247.42 344.127 256.508 340.064 268.91C338.532 273.589 337.284 280.672 339.775 285.188C340.653 286.779 342.197 287.884 343.952 288.314C348.622 289.459 354.092 289.21 358.886 289.458C368.989 289.982 379.644 291.049 389.311 294.103C399.558 297.34 410.415 303.331 415.472 313.261C417.152 316.562 418.067 320.126 418.899 323.716C422.412 338.875 419.781 353.943 419.294 369.214C419.188 372.547 419.258 375.893 419.257 379.227C419.255 381.285 419.436 383.382 418.76 385.355L418.567 385.875C417.565 388.735 416.024 391.064 413.904 393.218C411.136 396.029 407.706 398.311 404.46 400.536C393.151 408.287 377.419 416.461 363.321 416.395C358.644 416.373 355.418 415.07 352.111 411.757C349.054 407.325 348.615 402.81 349.386 397.599L349.489 396.938C350.175 392.31 353.807 388.644 354.061 384.188C352.961 382.715 347.436 384.669 345.325 383.431C344.113 382.72 343.848 380.921 343.593 379.688C344.359 377.377 346.792 375.815 348.596 374.245C348.105 372.458 347.512 370.829 346.146 369.513C343.19 366.667 338.833 367.274 335.052 367.246C335.791 363.043 342.373 340.215 341.812 338.864C340.663 342.601 339.588 346.329 338.293 350.024C336.469 355.23 332.362 362.104 333.019 367.688C333.43 371.174 336.334 371.888 338.838 373.688L339.022 375C337.989 376.193 335.271 375.536 333.684 375.504C328.351 375.399 325.002 377.144 320.365 379.558C323.266 370.217 327.786 360.864 331.882 351.983C333.808 347.806 336.099 343.55 337.509 339.174C340.444 330.066 338.847 319.439 335.542 310.622C332.256 301.856 325.878 294.953 325.487 285.088C324.932 271.074 332.948 257.454 342.198 247.426C357.122 231.246 378.198 222.72 399.994 221.786Z"/>
	<path fill="#3C3B3B" transform="scale(0.666667 0.666667)" d="M380.371 334.688L380.466 335.048C377.835 339.026 373.751 340.173 369.375 341.263C368.108 341.579 366.922 341.729 365.625 341.875C361.81 342.305 357.792 341.679 354.349 340.005L353.293 338.812C354.225 337.94 358.609 339.32 360.188 339.367C367.579 339.59 373.899 338.187 380.371 334.688Z"/>
	<path fill="#3C3B3B" transform="scale(0.666667 0.666667)" d="M377.939 340.267C380.118 339.903 382.359 340.09 384.56 340.154L373.767 345.489C368.506 348.153 363.42 348.423 357.856 346.554C356.1 346.044 352.909 345.73 351.855 344.438L352.109 344.056C354.819 340.642 361.892 343.125 365.75 342.403L377.939 340.267Z"/>
	<path fill="#3C3B3B" transform="scale(0.666667 0.666667)" d="M364.507 312.482L365.438 312.423C374.576 312.073 382.553 316.595 389.033 322.697C381.553 320.219 374.227 318.54 366.284 319.219C362.523 319.811 359.092 321.332 356.149 323.735C354.618 324.986 351.864 329.332 350.359 329.517C349.573 328.676 348.746 327.826 348.435 326.686C347.901 324.735 348.706 322.449 349.76 320.814C352.843 316.03 359.182 313.478 364.507 312.482Z"/>
</svg>
